<svg width="16" height="16" viewBox="0 0 16 16" fill="none" xmlns="http://www.w3.org/2000/svg">
<path d="M2 12.6666V6.71324C1.99997 6.49379 2.0541 6.27771 2.15761 6.0842C2.26111 5.89068 2.41078 5.72571 2.59333 5.60391L7.26 2.49324C7.47911 2.34706 7.7366 2.26904 8 2.26904C8.2634 2.26904 8.52089 2.34706 8.74 2.49324L13.4067 5.60391C13.5892 5.72571 13.7389 5.89068 13.8424 6.0842C13.9459 6.27771 14 6.49379 14 6.71324V12.6666M2 12.6666C2 13.0202 2.14048 13.3593 2.39052 13.6094C2.64057 13.8594 2.97971 13.9999 3.33333 13.9999H12.6667C13.0203 13.9999 13.3594 13.8594 13.6095 13.6094C13.8595 13.3593 14 13.0202 14 12.6666M2 12.6666L6.5 9.66658M14 12.6666L9.5 9.66658M2 6.66658L6.5 9.66658M14 6.66658L9.5 9.66658M9.5 9.66658L8.74 10.1732C8.52089 10.3194 8.2634 10.3974 8 10.3974C7.7366 10.3974 7.47911 10.3194 7.26 10.1732L6.5 9.66658" stroke="#0E4CAA" stroke-width="2" stroke-linecap="round" stroke-linejoin="round"/>
</svg>
