<svg width="25" height="25" viewBox="0 0 25 25" fill="none" xmlns="http://www.w3.org/2000/svg">
<path d="M12.908 9.77197L10.1106 7.90647C9.97873 7.81847 9.82539 7.76796 9.66702 7.76035C9.50864 7.75273 9.35117 7.7883 9.21143 7.86324C9.0717 7.93819 8.95496 8.04969 8.87369 8.18584C8.79241 8.32199 8.74966 8.47766 8.75 8.63622V12.3663C8.74998 12.5248 8.79296 12.6802 8.87436 12.8161C8.95576 12.952 9.07253 13.0633 9.21221 13.138C9.35188 13.2127 9.50923 13.2481 9.66745 13.2404C9.82568 13.2328 9.97885 13.1823 10.1106 13.0943L12.908 11.2288C13.0278 11.1489 13.1261 11.0407 13.1941 10.9137C13.262 10.7867 13.2976 10.6449 13.2976 10.5008C13.2976 10.3568 13.262 10.215 13.1941 10.088C13.1261 9.96101 13.0278 9.85275 12.908 9.77285V9.77197Z" stroke="#0E4CAA" stroke-width="2" stroke-linecap="round" stroke-linejoin="round"/>
<path d="M18.375 10.5C18.375 11.5342 18.1713 12.5582 17.7756 13.5136C17.3798 14.4691 16.7997 15.3372 16.0685 16.0685C15.3372 16.7997 14.4691 17.3798 13.5136 17.7756C12.5582 18.1713 11.5342 18.375 10.5 18.375C9.46584 18.375 8.44181 18.1713 7.48637 17.7756C6.53093 17.3798 5.6628 16.7997 4.93153 16.0685C4.20027 15.3372 3.6202 14.4691 3.22445 13.5136C2.82869 12.5582 2.625 11.5342 2.625 10.5C2.625 8.41142 3.45469 6.40838 4.93153 4.93153C6.40838 3.45469 8.41142 2.625 10.5 2.625C12.5886 2.625 14.5916 3.45469 16.0685 4.93153C17.5453 6.40838 18.375 8.41142 18.375 10.5Z" stroke="#0E4CAA" stroke-width="2" stroke-linecap="round" stroke-linejoin="round"/>
</svg>
